<?xml version="1.0" encoding="utf-8"?>
<!-- Generator: Adobe Illustrator 19.2.1, SVG Export Plug-In . SVG Version: 6.00 Build 0)  -->
<svg version="1.1" id="Layer_1" xmlns="http://www.w3.org/2000/svg" xmlns:xlink="http://www.w3.org/1999/xlink" x="0px" y="0px"
	 viewBox="0 0 800 800" style="enable-background:new 0 0 800 800;" xml:space="preserve">
<style type="text/css">
	.st0{opacity:0.1;fill:#B700FF;}
	.st1{opacity:0.1111;fill:#B700FF;}
	.st2{opacity:0.1222;fill:#B700FF;}
	.st3{opacity:0.1333;fill:#B700FF;}
	.st4{opacity:0.1444;fill:#B700FF;}
	.st5{opacity:0.1556;fill:#B700FF;}
	.st6{opacity:0.1667;fill:#B700FF;}
	.st7{opacity:0.1778;fill:#B700FF;}
	.st8{opacity:0.1889;fill:#B700FF;}
	.st9{opacity:0.2;fill:#B700FF;}
	.st10{opacity:0.2111;fill:#B700FF;}
	.st11{opacity:0.2222;fill:#B700FF;}
	.st12{opacity:0.2333;fill:#B700FF;}
	.st13{opacity:0.2444;fill:#B700FF;}
	.st14{opacity:0.2556;fill:#B700FF;}
	.st15{opacity:0.2667;fill:#B700FF;}
	.st16{opacity:0.2778;fill:#B700FF;}
	.st17{opacity:0.2889;fill:#B700FF;}
	.st18{opacity:0.3;fill:#B700FF;}
	.st19{opacity:0.3111;fill:#B700FF;}
	.st20{opacity:0.3222;fill:#B700FF;}
	.st21{opacity:0.3333;fill:#B700FF;}
	.st22{opacity:0.3444;fill:#B700FF;}
	.st23{opacity:0.3556;fill:#B700FF;}
	.st24{opacity:0.3667;fill:#B700FF;}
	.st25{opacity:0.3778;fill:#B700FF;}
	.st26{opacity:0.3889;fill:#B700FF;}
	.st27{opacity:0.4;fill:#B700FF;}
	.st28{opacity:0.4111;fill:#B700FF;}
	.st29{opacity:0.4222;fill:#B700FF;}
	.st30{opacity:0.4333;fill:#B700FF;}
	.st31{opacity:0.4444;fill:#B700FF;}
	.st32{opacity:0.4556;fill:#B700FF;}
	.st33{opacity:0.4667;fill:#B700FF;}
	.st34{opacity:0.4778;fill:#B700FF;}
	.st35{opacity:0.4889;fill:#B700FF;}
	.st36{opacity:0.5;fill:#B700FF;}
	.st37{opacity:0;fill:#B700FF;}
	.st38{opacity:2.777800e-002;fill:#B704FF;}
	.st39{opacity:5.555600e-002;fill:#B807FF;}
	.st40{opacity:8.333300e-002;fill:#B80BFF;}
	.st41{opacity:0.1111;fill:#B80EFF;}
	.st42{opacity:0.1389;fill:#B812FF;}
	.st43{opacity:0.1667;fill:#B916FF;}
	.st44{opacity:0.1944;fill:#B919FF;}
	.st45{opacity:0.2222;fill:#B91DFF;}
	.st46{opacity:0.25;fill:#BA21FF;}
	.st47{opacity:0.2778;fill:#BA24FF;}
	.st48{opacity:0.3056;fill:#BA28FF;}
	.st49{opacity:0.3333;fill:#BA2BFF;}
	.st50{opacity:0.3611;fill:#BB2FFF;}
	.st51{opacity:0.3889;fill:#BB33FF;}
	.st52{opacity:0.4167;fill:#BB36FF;}
	.st53{opacity:0.4444;fill:#BB3AFF;}
	.st54{opacity:0.4722;fill:#BC3DFF;}
	.st55{opacity:0.5;fill:#BC41FF;}
	.st56{opacity:0.5278;fill:#BC45FF;}
	.st57{opacity:0.5556;fill:#BD48FF;}
	.st58{opacity:0.5833;fill:#BD4CFF;}
	.st59{opacity:0.6111;fill:#BD4FFF;}
	.st60{opacity:0.6389;fill:#BD53FF;}
	.st61{opacity:0.6667;fill:#BE57FF;}
	.st62{opacity:0.6944;fill:#BE5AFF;}
	.st63{opacity:0.7222;fill:#BE5EFF;}
	.st64{opacity:0.75;fill:#BF62FF;}
	.st65{opacity:0.7778;fill:#BF65FF;}
	.st66{opacity:0.8056;fill:#BF69FF;}
	.st67{opacity:0.8333;fill:#BF6CFF;}
	.st68{opacity:0.8611;fill:#C070FF;}
	.st69{opacity:0.8889;fill:#C074FF;}
	.st70{opacity:0.9167;fill:#C077FF;}
	.st71{opacity:0.9444;fill:#C07BFF;}
	.st72{opacity:0.9722;fill:#C17EFF;}
	.st73{fill:#C182FF;}
	.st74{fill:#FFFFFF;}
</style>
<g>
	<g>
		<path class="st0" d="M611,598.2c-16.9,66.7-76.4,115.1-159.4,129.4c-88.4,15.3-165.3-26.9-205.6-112.8
			c-74.6-158.9,9.7-347.7,139.9-487c0.7,90.9,33.9,165.6,97.3,215.4C585.1,423.4,631.7,516.3,611,598.2z M525.3,289.5
			C444.6,226,446.9,122,463,45.9c3-14.3-3.4-29-16-36.4c-12.6-7.5-28.5-6.1-39.6,3.4C290,113.1,208.7,229.1,172.4,348.2
			C140.1,454,144.3,559,184.1,643.9C230.4,742.4,316.9,799,416.4,799c15.3,0,31-1.3,46.8-4.1c108.7-18.8,190.7-87.8,214-180
			C690.3,563.2,701.6,428.1,525.3,289.5z"/>
		<path class="st1" d="M611.4,598.3c-16.9,66.9-76.6,115.4-159.8,129.8c-88.6,15.3-165.7-27-206.1-113
			c-74.9-159.5,10-349,140.8-488.4c0.3,91.3,33.5,166.3,97,216.3C585.5,423.1,632.2,516.2,611.4,598.3z M525.1,289.9
			c-80.9-63.6-78.7-167.9-62.5-244.1c3-14.1-3.3-28.6-15.7-35.9c-12.4-7.4-28.1-6-39.1,3.3C290.3,113.4,209.1,229.3,172.8,348.4
			c-32.2,105.7-28.1,210.6,11.7,295.3c46.2,98.4,132.5,154.9,231.9,154.9c15.3,0,30.9-1.3,46.7-4.1
			c108.5-18.7,190.3-87.6,213.6-179.7C689.8,563.2,701.1,428.3,525.1,289.9z"/>
		<path class="st2" d="M611.9,598.4c-17,67.1-76.8,115.7-160.1,130.1c-88.8,15.3-166.1-27.1-206.6-113.3
			C170,455.2,255.5,265,386.9,125.4c0,91.7,33.1,167,96.8,217.1C585.9,422.9,632.7,516.2,611.9,598.4z M524.8,290.3
			c-81.1-63.8-78.9-168.2-62.7-244.6c3-13.9-3.3-28.2-15.5-35.4C434.3,3,418.8,4.3,408,13.5c-117.3,100.2-198.4,216-234.7,335
			c-32.2,105.6-28,210.3,11.7,295C231.1,741.6,317.3,798,416.4,798c15.3,0,30.9-1.3,46.6-4.1c108.3-18.7,190-87.4,213.2-179.3
			C689.3,563.2,700.6,428.5,524.8,290.3z"/>
		<path class="st3" d="M612.3,598.5c-17,67.3-77,116.1-160.5,130.5c-89,15.4-166.6-27.2-207.1-113.6
			C169.3,454.8,255.5,264,387.4,124.2c-0.3,92.1,32.7,167.8,96.6,217.9C586.4,422.6,633.2,516.1,612.3,598.5z M524.5,290.6
			c-81.3-63.9-79.1-168.6-62.9-245.1c2.9-13.7-3.2-27.8-15.3-34.9c-12.1-7.2-27.3-5.9-38,3.2C291.1,114,210,229.8,173.7,348.6
			c-32.2,105.5-28,210.1,11.7,294.6c46,98,132,154.3,231,154.3c15.2,0,30.8-1.3,46.5-4.1c108.1-18.7,189.7-87.3,212.9-179
			C688.8,563.2,700.1,428.7,524.5,290.6z"/>
		<path class="st4" d="M612.8,598.6c-17,67.5-77.2,116.4-160.9,130.8c-89.1,15.4-167-27.3-207.7-113.8
			C168.6,454.5,255.4,262.9,388,122.9c-0.6,92.5,32.3,168.5,96.3,218.8C586.8,422.4,633.7,516,612.8,598.6z M524.2,291
			c-81.5-64.1-79.3-168.9-63-245.5C464,31.9,457.9,18.1,446,11c-11.9-7.1-26.9-5.8-37.4,3.2C291.5,114.3,210.4,230,174.2,348.8
			c-32.1,105.4-28,209.9,11.6,294.3c45.9,97.8,131.8,154,230.6,154c15.2,0,30.7-1.3,46.5-4.1c107.9-18.6,189.3-87.1,212.5-178.6
			C688.3,563.1,699.6,428.9,524.2,291z"/>
		<path class="st5" d="M613.3,598.7c-17.1,67.6-77.4,116.7-161.3,131.2c-89.3,15.4-167.4-27.4-208.2-114.1
			c-75.9-161.7,11.5-353.9,144.7-494.1c-1,92.9,31.9,169.2,96.1,219.6C587.3,422.1,634.2,515.9,613.3,598.7z M523.9,291.4
			c-81.7-64.2-79.5-169.2-63.2-246c2.8-13.3-3.2-27-14.9-33.9c-11.7-7-26.6-5.7-36.9,3.2c-117.1,100-198.1,215.6-234.3,334.3
			c-32.1,105.3-28,209.6,11.6,293.9c45.9,97.7,131.6,153.8,230.2,153.8c15.2,0,30.7-1.3,46.4-4c107.7-18.6,189-86.9,212.1-178.3
			C687.9,563.1,699.1,429.1,523.9,291.4z"/>
		<path class="st6" d="M613.7,598.9c-17.1,67.8-77.6,117-161.6,131.5c-89.5,15.5-167.9-27.5-208.7-114.4
			C167.2,453.7,255.3,260.9,389,120.5c-1.3,93.3,31.5,169.9,95.8,220.5C587.7,421.9,634.7,515.9,613.7,598.9z M523.6,291.8
			c-81.9-64.4-79.7-169.6-63.4-246.5c2.8-13.1-3.1-26.6-14.6-33.4C434,5,419.4,6.3,409.2,15c-117,99.9-198,215.5-234.1,334.1
			c-32.1,105.1-27.9,209.4,11.6,293.6c45.8,97.5,131.3,153.5,229.8,153.5c15.2,0,30.6-1.3,46.3-4c107.6-18.6,188.7-86.8,211.7-177.9
			C687.4,563.1,698.5,429.3,523.6,291.8z"/>
		<path class="st7" d="M614.2,599c-17.2,68-77.8,117.3-162,131.9c-89.7,15.5-168.3-27.6-209.2-114.6
			c-76.5-162.8,12.2-356.4,146.6-496.9c-1.6,93.7,31.1,170.7,95.6,221.3C588.2,421.6,635.2,515.8,614.2,599z M523.3,292.1
			c-82.1-64.5-79.9-169.9-63.6-247c2.7-12.9-3.1-26.2-14.4-32.9c-11.4-6.7-25.8-5.5-35.8,3.1c-116.9,99.9-197.8,215.3-234,333.9
			c-32,105-27.9,209.2,11.6,293.3c45.7,97.3,131.1,153.2,229.3,153.2c15.1,0,30.6-1.3,46.2-4C570,773.1,651,705.1,674,614.1
			C686.9,563.1,698,429.5,523.3,292.1z"/>
		<path class="st8" d="M614.6,599.1c-17.2,68.2-78,117.6-162.4,132.2c-89.9,15.5-168.7-27.7-209.7-114.9
			C165.8,453,255.1,258.8,390.1,118.1c-1.9,94.2,30.7,171.4,95.3,222.2C588.6,421.4,635.7,515.7,614.6,599.1z M523,292.5
			c-82.3-64.7-80.1-170.3-63.7-247.4c2.7-12.7-3-25.8-14.2-32.4c-11.2-6.6-25.4-5.4-35.2,3C293,115.5,212.1,230.9,176,349.3
			c-32,104.9-27.9,208.9,11.6,292.9c45.6,97.1,130.8,152.9,228.9,152.9c15.1,0,30.5-1.3,46.1-4c107.2-18.5,188-86.4,211-177.2
			C686.4,563,697.5,429.7,523,292.5z"/>
		<path class="st9" d="M615.1,599.2c-17.3,68.4-78.1,118-162.8,132.6c-90,15.6-169.2-27.8-210.2-115.2
			c-77-163.9,13-358.9,148.5-499.8c-2.2,94.6,30.4,172.1,95.1,223C589.1,421.1,636.2,515.6,615.1,599.2z M522.7,292.9
			C440.2,228,442.4,122.3,458.8,45c2.7-12.5-3-25.3-14-31.9c-11-6.5-25-5.3-34.7,3c-116.8,99.8-197.6,215.1-233.7,333.4
			c-32,104.8-27.9,208.7,11.5,292.6c45.5,97,130.6,152.7,228.5,152.7c15.1,0,30.4-1.3,46-4c107-18.5,187.7-86.3,210.6-176.9
			C685.9,563,697,429.9,522.7,292.9z"/>
		<path class="st10" d="M615.6,599.3c-17.3,68.6-78.3,118.3-163.2,132.9c-90.2,15.6-169.6-27.9-210.7-115.4
			C164.4,452.3,255,256.7,391.2,115.6c-2.6,95,30,172.8,94.9,223.9C589.5,420.9,636.7,515.6,615.6,599.3z M522.4,293.2
			c-82.7-65-80.5-170.9-64.1-248.4c2.6-12.3-2.9-24.9-13.8-31.4c-10.8-6.4-24.6-5.3-34.1,2.9C293.7,116.1,213,231.3,176.9,349.6
			c-31.9,104.7-27.8,208.5,11.5,292.2c45.5,96.8,130.4,152.4,228.1,152.4c15,0,30.4-1.3,45.9-4c106.8-18.5,187.3-86.1,210.2-176.5
			C685.4,563,696.5,430.1,522.4,293.2z"/>
		<path class="st11" d="M616,599.4c-17.4,68.8-78.5,118.6-163.5,133.3c-90.4,15.6-170-28-211.2-115.7
			C163.7,452,255,255.7,391.7,114.4c-2.9,95.4,29.6,173.6,94.6,224.7C590,420.6,637.2,515.5,616,599.4z M522.1,293.6
			c-82.9-65.1-80.7-171.3-64.2-248.8c2.6-12.1-2.9-24.5-13.5-30.9c-10.7-6.3-24.2-5.2-33.6,2.9c-116.6,99.6-197.4,214.8-233.4,333
			c-31.9,104.6-27.8,208.2,11.5,291.9c45.4,96.6,130.1,152.1,227.7,152.1c15,0,30.3-1.3,45.8-4c106.6-18.4,187-85.9,209.8-176.2
			C685,562.9,696,430.3,522.1,293.6z"/>
		<path class="st12" d="M616.5,599.6c-17.4,69-78.7,118.9-163.9,133.6c-90.6,15.7-170.5-28.1-211.7-116
			c-77.8-165.6,14.1-362.6,151.4-504c-3.2,95.8,29.2,174.3,94.4,225.5C590.4,420.4,637.8,515.4,616.5,599.6z M521.8,294
			c-83-65.3-80.9-171.6-64.4-249.3c2.5-11.9-2.8-24.1-13.3-30.4c-10.5-6.2-23.8-5.1-33,2.8c-116.6,99.6-197.2,214.7-233.2,332.7
			c-31.9,104.5-27.8,208,11.5,291.6c45.3,96.4,129.9,151.9,227.2,151.9c15,0,30.3-1.3,45.7-4c106.4-18.4,186.7-85.8,209.4-175.8
			C684.5,562.9,695.5,430.5,521.8,294z"/>
		<path class="st13" d="M616.9,599.7c-17.5,69.1-78.9,119.2-164.3,134c-90.8,15.7-170.9-28.2-212.2-116.2
			c-78-166.2,14.4-363.8,152.4-505.5c-3.5,96.2,28.8,175,94.1,226.4C590.9,420.1,638.3,515.3,616.9,599.7z M521.5,294.4
			c-83.2-65.4-81.1-172-64.6-249.8c2.5-11.7-2.8-23.7-13.1-29.9c-10.3-6.1-23.4-5-32.5,2.8C294.9,117,214.3,232,178.3,350
			c-31.8,104.4-27.8,207.8,11.4,291.2c45.2,96.3,129.6,151.6,226.8,151.6c14.9,0,30.2-1.3,45.6-4c106.2-18.4,186.3-85.6,209.1-175.4
			C684,562.9,695,430.7,521.5,294.4z"/>
		<path class="st14" d="M617.4,599.8c-17.5,69.3-79.1,119.6-164.7,134.3c-91,15.7-171.3-28.3-212.8-116.5
			c-78.3-166.7,14.8-365.1,153.4-506.9c-3.9,96.6,28.4,175.7,93.9,227.2C591.3,419.9,638.8,515.3,617.4,599.8z M521.2,294.7
			c-83.4-65.6-81.3-172.3-64.8-250.3c2.4-11.5-2.7-23.3-12.9-29.4c-10.1-6-23-4.9-31.9,2.7c-116.4,99.5-197,214.4-233,332.3
			C146.9,454.4,151,557.7,190.1,641c45.1,96.1,129.4,151.3,226.4,151.3c14.9,0,30.1-1.3,45.6-4c106.1-18.3,186-85.4,208.7-175.1
			C683.5,562.9,694.4,430.9,521.2,294.7z"/>
		<path class="st15" d="M617.9,599.9c-17.6,69.5-79.3,119.9-165.1,134.7c-91.1,15.7-171.8-28.4-213.3-116.8
			C161,450.6,254.7,251.5,393.9,109.6c-4.2,97,28,176.5,93.6,228.1C591.8,419.6,639.3,515.2,617.9,599.9z M520.9,295.1
			c-83.6-65.7-81.5-172.6-64.9-250.7c2.4-11.3-2.7-22.9-12.6-28.9c-10-5.9-22.6-4.8-31.4,2.7c-116.4,99.4-196.9,214.2-232.8,332.1
			c-31.7,104.1-27.7,207.3,11.4,290.5c45,95.9,129.2,151,226,151c14.9,0,30.1-1.3,45.5-4c105.9-18.3,185.7-85.3,208.3-174.7
			C683,562.8,693.9,431.1,520.9,295.1z"/>
		<path class="st16" d="M618.3,600c-17.6,69.7-79.5,120.2-165.4,135c-91.3,15.8-172.2-28.5-213.8-117
			c-78.8-167.8,15.5-367.6,155.3-509.7c-4.5,97.4,27.6,177.2,93.4,228.9C592.2,419.4,639.8,515.1,618.3,600z M520.7,295.5
			c-83.8-65.9-81.7-173-65.1-251.2c2.4-11.1-2.6-22.5-12.4-28.3c-9.8-5.8-22.2-4.8-30.8,2.6C296,117.9,215.5,232.7,179.6,350.4
			c-31.7,104-27.7,207.1,11.4,290.2c45,95.7,128.9,150.8,225.6,150.8c14.9,0,30-1.3,45.4-4c105.7-18.3,185.3-85.1,207.9-174.4
			C682.5,562.8,693.4,431.3,520.7,295.5z"/>
		<path class="st17" d="M618.8,600.1C601.1,670,539.1,720.6,453,735.5c-91.5,15.8-172.6-28.6-214.3-117.3
			c-79.1-168.4,15.9-368.8,156.3-511.1c-4.8,97.8,27.2,177.9,93.2,229.8C592.7,419.1,640.3,515.1,618.8,600.1z M520.4,295.9
			c-84-66-81.9-173.3-65.3-251.7c2.3-10.9-2.6-22.1-12.2-27.8c-9.6-5.7-21.8-4.7-30.3,2.6c-116.2,99.3-196.6,214-232.5,331.6
			c-31.7,103.9-27.7,206.8,11.3,289.9c44.9,95.6,128.7,150.5,225.1,150.5c14.8,0,30-1.3,45.3-3.9c105.5-18.2,185-84.9,207.5-174
			C682.1,562.8,692.9,431.5,520.4,295.9z"/>
		<path class="st18" d="M619.2,600.2C601.5,670.3,539.4,721.1,453,736c-91.7,15.8-173.1-28.7-214.8-117.6
			c-79.3-169,16.3-370.1,157.2-512.5c-5.1,98.2,26.8,178.6,92.9,230.6C593.1,418.9,640.8,515,619.2,600.2z M520.1,296.2
			C435.9,230,438,122.6,454.6,44.1c2.3-10.7-2.5-21.7-12-27.3c-9.4-5.6-21.4-4.6-29.7,2.5c-116.2,99.2-196.5,213.8-232.4,331.4
			c-31.6,103.8-27.6,206.6,11.3,289.5c44.8,95.4,128.5,150.2,224.7,150.2c14.8,0,29.9-1.3,45.2-3.9
			c105.3-18.2,184.7-84.8,207.2-173.7C681.6,562.8,692.4,431.7,520.1,296.2z"/>
		<path class="st19" d="M619.7,600.4c-17.8,70.3-80,121.1-166.6,136.1c-91.9,15.9-173.5-28.8-215.3-117.8
			c-79.6-169.5,16.6-371.3,158.2-514c-5.5,98.6,26.4,179.4,92.7,231.5C593.5,418.6,641.3,514.9,619.7,600.4z M519.8,296.6
			c-84.4-66.3-82.3-174-65.6-252.6c2.2-10.5-2.5-21.3-11.8-26.8c-9.3-5.5-21-4.5-29.2,2.5C297.1,118.8,216.8,233.4,181,350.8
			c-31.6,103.7-27.6,206.4,11.3,289.2C237,735.3,320.5,790,416.6,790c14.8,0,29.8-1.3,45.1-3.9c105.1-18.2,184.3-84.6,206.8-173.3
			C681.1,562.7,691.9,431.9,519.8,296.6z"/>
		<path class="st20" d="M620.2,600.5c-17.8,70.5-80.2,121.5-167,136.5c-92,15.9-173.9-28.9-215.8-118.1
			c-79.9-170.1,17-372.5,159.1-515.4c-5.8,99,26,180.1,92.4,232.3C594,418.3,641.8,514.8,620.2,600.5z M519.5,297
			c-84.6-66.5-82.5-174.3-65.8-253.1c2.2-10.3-2.5-20.9-11.5-26.3c-9.1-5.4-20.6-4.4-28.6,2.5c-116,99.1-196.3,213.6-232.1,331
			c-31.6,103.6-27.6,206.1,11.3,288.8c44.6,95,128,149.7,223.9,149.7c14.7,0,29.8-1.3,45-3.9c104.9-18.1,184-84.4,206.4-173
			C680.6,562.7,691.4,432.1,519.5,297z"/>
		<path class="st21" d="M620.6,600.6c-17.9,70.6-80.4,121.8-167.3,136.8c-92.2,15.9-174.3-29-216.3-118.4
			c-80.1-170.6,17.4-373.8,160.1-516.8c-6.1,99.4,25.6,180.8,92.2,233.1C594.4,418.1,642.3,514.8,620.6,600.6z M519.2,297.3
			c-84.8-66.6-82.7-174.7-65.9-253.6c2.1-10.1-2.4-20.5-11.3-25.8c-8.9-5.3-20.2-4.3-28.1,2.4c-116,99.1-196.2,213.4-231.9,330.7
			c-31.5,103.5-27.6,205.9,11.2,288.5C237.7,734.5,320.9,789,416.6,789c14.7,0,29.7-1.3,44.9-3.9c104.7-18.1,183.7-84.2,206-172.6
			C680.1,562.7,690.9,432.3,519.2,297.3z"/>
		<path class="st22" d="M621.1,600.7c-17.9,70.8-80.6,122.1-167.7,137.2c-92.4,16-174.8-29.1-216.8-118.6
			c-80.4-171.2,17.7-375,161.1-518.2c-6.4,99.8,25.2,181.5,92,234C594.9,417.8,642.8,514.7,621.1,600.7z M518.9,297.7
			c-85-66.8-82.8-175-66.1-254c2.1-9.9-2.4-20.1-11.1-25.3c-8.7-5.2-19.8-4.2-27.5,2.4c-115.9,99-196,213.3-231.8,330.5
			c-31.5,103.3-27.5,205.7,11.2,288.2c44.5,94.7,127.5,149.1,223,149.1c14.7,0,29.7-1.3,44.8-3.9c104.6-18.1,183.4-84.1,205.6-172.3
			C679.7,562.7,690.4,432.5,518.9,297.7z"/>
		<path class="st23" d="M621.5,600.8c-18,71-80.8,122.4-168.1,137.5c-92.6,16-175.2-29.2-217.4-118.9
			c-80.6-171.7,18.1-376.3,162-519.6c-6.8,100.2,24.8,182.3,91.7,234.8C595.3,417.6,643.3,514.6,621.5,600.8z M518.6,298.1
			c-85.2-67-83-175.4-66.3-254.5c2.1-9.7-2.3-19.7-10.9-24.8c-8.6-5.1-19.4-4.2-27,2.3C298.6,120,218.5,234.3,182.8,351.4
			c-31.5,103.2-27.5,205.4,11.2,287.8c44.4,94.5,127.3,148.8,222.6,148.8c14.6,0,29.6-1.3,44.7-3.9c104.4-18,183-83.9,205.3-171.9
			C679.2,562.6,689.8,432.7,518.6,298.1z"/>
		<path class="st24" d="M622,600.9c-18,71.2-81,122.7-168.5,137.9c-92.8,16-175.6-29.3-217.9-119.1
			c-80.9-172.3,18.5-377.5,163-521.1c-7.1,100.7,24.5,183,91.5,235.7C595.8,417.3,643.9,514.5,622,600.9z M518.3,298.5
			c-85.3-67.1-83.2-175.7-66.5-255c2-9.5-2.3-19.3-10.6-24.3c-8.4-5-19-4.1-26.4,2.3C299,120.3,219,234.5,183.3,351.5
			c-31.4,103.1-27.5,205.2,11.2,287.5c44.3,94.4,127,148.6,222.2,148.6c14.6,0,29.5-1.3,44.7-3.9c104.2-18,182.7-83.7,204.9-171.6
			C678.7,562.6,689.3,432.9,518.3,298.5z"/>
		<path class="st25" d="M622.5,601.1c-18,71.4-81.2,123.1-168.9,138.2c-93,16.1-176.1-29.4-218.4-119.4
			c-81.2-172.8,18.8-378.7,164-522.5c-7.4,101.1,24.1,183.7,91.2,236.5C596.2,417.1,644.4,514.5,622.5,601.1z M518,298.8
			c-85.5-67.3-83.4-176-66.6-255.4c2-9.3-2.2-18.9-10.4-23.8c-8.2-4.9-18.6-4-25.9,2.2c-115.7,98.8-195.7,212.9-231.4,329.9
			c-31.4,103-27.5,205,11.1,287.1c44.2,94.2,126.8,148.3,221.8,148.3c14.6,0,29.5-1.3,44.6-3.9c104-18,182.4-83.6,204.5-171.2
			C678.2,562.6,688.8,433.1,518,298.8z"/>
		<path class="st26" d="M622.9,601.2c-18.1,71.6-81.4,123.4-169.2,138.6c-93.1,16.1-176.5-29.5-218.9-119.7
			c-81.4-173.4,19.2-380,164.9-523.9c-7.7,101.5,23.7,184.4,91,237.4C596.7,416.8,644.9,514.4,622.9,601.2z M517.7,299.2
			c-85.7-67.4-83.6-176.4-66.8-255.9c1.9-9.1-2.2-18.5-10.2-23.3c-8-4.8-18.2-3.9-25.3,2.2c-115.6,98.8-195.6,212.7-231.2,329.6
			c-31.4,102.9-27.4,204.7,11.1,286.8c44.1,94,126.6,148,221.3,148c14.6,0,29.4-1.3,44.5-3.9c103.8-17.9,182-83.4,204.1-170.9
			C677.7,562.6,688.3,433.3,517.7,299.2z"/>
		<path class="st27" d="M623.4,601.3c-18.1,71.8-81.6,123.7-169.6,138.9c-93.3,16.1-176.9-29.6-219.4-119.9
			c-81.7-174,19.6-381.2,165.9-525.3c-8,101.9,23.3,185.2,90.7,238.2C597.1,416.6,645.4,514.3,623.4,601.3z M517.4,299.6
			c-85.9-67.6-83.8-176.7-67-256.4c1.9-8.9-2.1-18.1-10-22.8c-7.9-4.7-17.8-3.8-24.8,2.1C300.1,121.2,220.2,235.2,184.6,352
			c-31.3,102.8-27.4,204.5,11.1,286.5c44.1,93.8,126.3,147.7,220.9,147.7c14.5,0,29.4-1.3,44.4-3.9
			c103.6-17.9,181.7-83.2,203.7-170.5C677.2,562.5,687.8,433.5,517.4,299.6z"/>
		<path class="st28" d="M623.8,601.4c-18.2,71.9-81.7,124-170,139.3c-93.5,16.2-177.4-29.7-219.9-120.2
			C152,445.9,253.9,238,400.8,93.7c-8.4,102.3,22.9,185.9,90.5,239.1C597.6,416.3,645.9,514.2,623.8,601.4z M517.1,300
			c-86.1-67.7-84-177-67.1-256.9c1.8-8.8-2.1-17.7-9.8-22.3c-7.7-4.6-17.4-3.7-24.2,2.1c-115.5,98.6-195.3,212.5-230.9,329.2
			c-31.3,102.7-27.4,204.3,11.1,286.1c44,93.7,126.1,147.5,220.5,147.5c14.5,0,29.3-1.3,44.3-3.9c103.4-17.9,181.4-83.1,203.4-170.2
			C676.8,562.5,687.3,433.7,517.1,300z"/>
		<path class="st29" d="M624.3,601.5c-18.2,72.1-81.9,124.3-170.4,139.6c-93.7,16.2-177.8-29.8-220.4-120.5
			C151.3,445.6,253.8,237,401.3,92.5c-8.7,102.7,22.5,186.6,90.3,239.9C598,416.1,646.4,514.2,624.3,601.5z M516.8,300.3
			c-86.3-67.9-84.2-177.4-67.3-257.3c1.8-8.6-2-17.3-9.5-21.8c-7.5-4.5-17-3.7-23.7,2c-115.4,98.6-195.2,212.3-230.8,329
			c-31.3,102.5-27.3,204,11,285.8c43.9,93.5,125.8,147.2,220.1,147.2c14.5,0,29.3-1.3,44.2-3.9c103.2-17.8,181-82.9,203-169.8
			C676.3,562.5,686.8,433.9,516.8,300.3z"/>
		<path class="st30" d="M624.8,601.6c-18.3,72.3-82.1,124.6-170.8,140c-93.9,16.2-178.2-29.9-220.9-120.7
			c-82.5-175.6,20.7-384.9,168.8-529.6c-9,103.1,22.1,187.3,90,240.7C598.5,415.8,646.9,514.1,624.8,601.6z M516.5,300.7
			c-86.5-68-84.4-177.7-67.5-257.8c1.8-8.4-2-16.9-9.3-21.3c-7.3-4.4-16.6-3.6-23.1,2C301.3,122.2,221.5,235.8,186,352.4
			c-31.2,102.4-27.3,203.8,11,285.4c43.8,93.3,125.6,146.9,219.7,146.9c14.4,0,29.2-1.3,44.1-3.8c103-17.8,180.7-82.7,202.6-169.5
			C675.8,562.4,686.3,434.1,516.5,300.7z"/>
		<path class="st31" d="M625.2,601.8c-18.3,72.5-82.3,125-171.1,140.3c-94,16.3-178.7-30-221.4-121c-82.7-176.2,21-386.2,169.8-531
			c-9.3,103.5,21.7,188.1,89.8,241.6C598.9,415.6,647.4,514,625.2,601.8z M516.3,301.1c-86.7-68.2-84.6-178.1-67.7-258.3
			c1.7-8.2-1.9-16.5-9.1-20.8c-7.2-4.3-16.2-3.5-22.6,1.9c-115.3,98.5-195,212.1-230.5,328.5c-31.2,102.3-27.3,203.6,11,285.1
			c43.7,93.1,125.4,146.7,219.2,146.7c14.4,0,29.1-1.3,44-3.8c102.9-17.8,180.4-82.6,202.2-169.1
			C675.3,562.4,685.7,434.3,516.3,301.1z"/>
		<path class="st32" d="M625.7,601.9c-18.4,72.7-82.5,125.3-171.5,140.7c-94.2,16.3-179.1-30.1-221.9-121.3
			c-83-176.7,21.4-387.4,170.7-532.4c-9.7,103.9,21.3,188.8,89.5,242.4C599.4,415.3,647.9,513.9,625.7,601.9z M516,301.4
			c-86.9-68.3-84.8-178.4-67.8-258.7c1.7-8-1.9-16.1-8.9-20.3c-7-4.2-15.8-3.4-22,1.9C302,122.8,222.4,236.3,186.9,352.6
			c-31.2,102.2-27.3,203.3,11,284.8c43.7,93,125.1,146.4,218.8,146.4c14.4,0,29.1-1.3,43.9-3.8c102.7-17.7,180-82.4,201.9-168.8
			C674.8,562.4,685.2,434.5,516,301.4z"/>
		<path class="st33" d="M626.1,602c-18.4,72.9-82.7,125.6-171.9,141c-94.4,16.3-179.5-30.2-222.5-121.5
			c-83.3-177.3,21.8-388.7,171.7-533.8c-10,104.3,20.9,189.5,89.3,243.3C599.8,415.1,648.4,513.9,626.1,602z M515.7,301.8
			c-87.1-68.5-85-178.7-68-259.2c1.6-7.8-1.8-15.7-8.7-19.7c-6.8-4.1-15.5-3.3-21.5,1.8c-115.1,98.4-194.7,211.8-230.2,328.1
			c-31.1,102.1-27.2,203.1,10.9,284.4c43.6,92.8,124.9,146.1,218.4,146.1c14.4,0,29-1.3,43.9-3.8C563,761.8,640.2,697.2,662,611.1
			C674.3,562.4,684.7,434.7,515.7,301.8z"/>
		<path class="st34" d="M626.6,602.1c-18.5,73.1-82.9,125.9-172.3,141.4c-94.6,16.4-180-30.3-223-121.8
			C147.9,443.8,253.5,231.8,404,86.4c-10.3,104.7,20.5,190.2,89.1,244.1C600.3,414.8,648.9,513.8,626.6,602.1z M515.4,302.2
			c-87.3-68.6-85.2-179.1-68.2-259.7c1.6-7.6-1.8-15.3-8.4-19.2c-6.6-3.9-15.1-3.2-20.9,1.8c-115.1,98.3-194.6,211.7-230,327.9
			c-31.1,102-27.2,202.9,10.9,284.1c43.5,92.6,124.6,145.8,218,145.8c14.3,0,29-1.3,43.8-3.8c102.3-17.7,179.4-82.1,201.1-168.1
			C673.9,562.3,684.2,435,515.4,302.2z"/>
		<path class="st35" d="M627.1,602.2C608.5,675.5,544,728.5,454.4,744c-94.8,16.4-180.4-30.4-223.5-122.1
			c-83.8-178.4,22.5-391.2,173.6-536.7c-10.6,105.1,20.1,191,88.8,245C600.7,414.6,649.4,513.7,627.1,602.2z M515.1,302.6
			c-87.5-68.8-85.4-179.4-68.3-260.2c1.6-7.4-1.7-14.9-8.2-18.7c-6.5-3.8-14.7-3.1-20.4,1.7c-115,98.2-194.5,211.5-229.9,327.6
			c-31.1,101.9-27.2,202.6,10.9,283.7c43.4,92.4,124.4,145.6,217.6,145.6c14.3,0,28.9-1.3,43.7-3.8c102.1-17.6,179-81.9,200.7-167.7
			C673.4,562.3,683.7,435.2,515.1,302.6z"/>
		<path class="st36" d="M627.5,602.3c-18.6,73.4-83.3,126.6-173,142.1c-95,16.4-180.8-30.5-224-122.3
			c-84-179,22.9-392.4,174.6-538.1c-10.9,105.5,19.7,191.7,88.6,245.8C601.2,414.3,649.9,513.7,627.5,602.3z M514.8,302.9
			c-87.7-68.9-85.6-179.8-68.5-260.6c1.5-7.2-1.7-14.5-8-18.2c-6.3-3.7-14.3-3.1-19.8,1.7C303.5,124,224.1,237.2,188.7,353.2
			c-31,101.8-27.2,202.4,10.9,283.4c43.3,92.3,124.2,145.3,217.1,145.3c14.3,0,28.8-1.3,43.6-3.8c101.9-17.6,178.7-81.7,200.3-167.4
			C672.9,562.3,683.2,435.4,514.8,302.9z"/>
	</g>
	<g>
		<path class="st37" d="M627.5,602.3c-18.6,73.4-83.3,126.6-173,142.1c-95,16.4-180.8-30.5-224-122.3
			c-84-179,22.9-392.4,174.6-538.1c-10.9,105.5,19.7,191.7,88.6,245.8C601.2,414.3,649.9,513.7,627.5,602.3z M514.8,302.9
			c-87.7-68.9-85.6-179.8-68.5-260.6c1.5-7.2-1.7-14.5-8-18.2c-6.3-3.7-14.3-3.1-19.8,1.7C303.5,124,224.1,237.2,188.7,353.2
			c-31,101.8-27.2,202.4,10.9,283.4c43.3,92.3,124.2,145.3,217.1,145.3c14.3,0,28.8-1.3,43.6-3.8c101.9-17.6,178.7-81.7,200.3-167.4
			C672.9,562.3,683.2,435.4,514.8,302.9z"/>
		<path class="st38" d="M627.8,602.4c-18.6,73.5-83.4,126.7-173.2,142.3c-95.1,16.4-181-30.5-224.2-122.5
			c-84.2-179.3,23.1-393.1,175.1-538.8c-11,104.7,18.9,191.6,88.4,246.3C601.4,414.2,650.2,513.6,627.8,602.4z M514.6,303.1
			C428,235,428.5,125.1,446,42.3c1.5-7.1-1.7-14.3-7.9-18c-6.2-3.7-14.1-3-19.5,1.7c-114.9,98.1-194.3,211.3-229.7,327.3
			c-31,101.7-27.2,202.3,10.9,283.2c43.3,92.2,124.1,145.1,216.9,145.1c14.2,0,28.8-1.3,43.5-3.8c101.8-17.6,178.5-81.7,200.1-167.2
			C673,560.8,681.6,434.4,514.6,303.1z"/>
		<path class="st39" d="M628,602.5c-18.6,73.6-83.4,126.9-173.4,142.4c-95.2,16.5-181.2-30.5-224.5-122.6
			c-84.3-179.6,23.3-393.7,175.7-539.5c-11,103.8,18.1,191.5,88.2,246.7C601.6,414.1,650.5,513.6,628,602.5z M514.5,303.3
			C428.9,236,427.9,127,445.8,42.2c1.5-7-1.7-14.1-7.8-17.7c-6.1-3.6-13.9-3-19.3,1.7c-114.9,98.1-194.3,211.3-229.6,327.2
			C158.2,455,162,555.5,200,636.4c43.2,92.1,123.9,145,216.7,145c14.2,0,28.8-1.2,43.5-3.8c101.7-17.6,178.4-81.6,200-167
			C673.1,559.4,680,433.4,514.5,303.3z"/>
		<path class="st40" d="M628.2,602.5c-18.6,73.7-83.5,127-173.6,142.6c-95.3,16.5-181.4-30.6-224.7-122.7
			C145.4,442.5,253.4,228,406.1,82.1c-11,103,17.2,191.5,88,247.1C601.8,413.9,650.7,513.5,628.2,602.5z M514.3,303.5
			c-84.5-66.5-87.1-174.6-68.8-261.3c1.4-6.9-1.6-13.9-7.7-17.5c-6-3.6-13.7-2.9-19,1.6c-114.8,98.1-194.2,211.2-229.5,327.1
			c-31,101.6-27.1,202.1,10.8,282.9c43.2,92,123.8,144.9,216.5,144.9c14.2,0,28.7-1.2,43.4-3.8c101.6-17.6,178.2-81.5,199.8-166.8
			C673.3,557.9,678.4,432.5,514.3,303.5z"/>
		<path class="st41" d="M628.4,602.6c-18.7,73.8-83.6,127.2-173.8,142.8c-95.4,16.5-181.7-30.6-225-122.9
			c-84.6-180.2,23.8-395.1,176.7-541c-11,102.1,16.4,191.4,87.9,247.6C602,413.8,651,513.5,628.4,602.6z M514.2,303.7
			c-83.5-65.6-87.6-172.9-68.8-261.6c1.4-6.8-1.6-13.7-7.5-17.2c-5.9-3.5-13.5-2.9-18.7,1.6c-114.8,98.1-194.1,211.1-229.5,327
			c-31,101.5-27.1,201.9,10.8,282.7c43.2,91.9,123.7,144.7,216.3,144.7c14.2,0,28.7-1.2,43.4-3.8c101.5-17.5,178-81.4,199.6-166.7
			C673.4,556.4,676.8,431.5,514.2,303.7z"/>
		<path class="st42" d="M628.7,602.6c-18.7,73.9-83.7,127.4-174,143c-95.5,16.5-181.9-30.6-225.3-123
			c-84.7-180.5,24-395.7,177.3-541.7c-11,101.3,15.6,191.3,87.7,248C602.3,413.7,651.2,513.5,628.7,602.6z M514.1,303.9
			c-82.5-64.8-88.1-171.2-68.9-261.8c1.4-6.7-1.6-13.5-7.4-17c-5.8-3.5-13.3-2.9-18.4,1.6c-114.8,98-194.1,211.1-229.4,326.9
			c-30.9,101.5-27.1,201.8,10.8,282.6c43.1,91.8,123.6,144.6,216.1,144.6c14.2,0,28.7-1.2,43.4-3.8
			c101.5-17.5,177.9-81.3,199.4-166.5C673.5,555,675.2,430.5,514.1,303.9z"/>
		<path class="st43" d="M628.9,602.7c-18.7,74-83.8,127.5-174.2,143.1c-95.6,16.5-182.1-30.7-225.5-123.1
			C144.3,441.9,253.4,226.3,407,80.2c-11.1,100.4,14.8,191.2,87.5,248.5C602.5,413.6,651.5,513.4,628.9,602.7z M513.9,304.1
			c-81.4-64-88.6-169.5-69-262c1.4-6.6-1.6-13.3-7.3-16.7c-5.8-3.4-13.1-2.8-18.2,1.6c-114.7,98-194,211-229.3,326.7
			C159.2,455,163,555.3,200.9,636c43.1,91.7,123.5,144.5,215.9,144.5c14.2,0,28.7-1.2,43.3-3.8c101.4-17.5,177.7-81.2,199.2-166.3
			C673.6,553.5,673.5,429.6,513.9,304.1z"/>
		<path class="st44" d="M629.1,602.8c-18.7,74.1-83.9,127.7-174.4,143.3C359,762.6,272.5,715.4,229,622.8
			c-85-181,24.4-397,178.3-543.2c-11.1,99.6,13.9,191.2,87.3,248.9C602.7,413.4,651.7,513.4,629.1,602.8z M513.8,304.2
			C433.4,241,424.6,136.4,444.7,42c1.4-6.5-1.5-13.1-7.2-16.5c-5.7-3.4-12.9-2.8-17.9,1.5c-114.7,98-194,210.9-229.2,326.6
			c-30.9,101.4-27.1,201.6,10.8,282.2c43,91.7,123.3,144.3,215.7,144.3c14.2,0,28.6-1.2,43.3-3.8c101.3-17.5,177.5-81.2,199-166.1
			C673.8,552.1,671.9,428.6,513.8,304.2z"/>
		<path class="st45" d="M629.4,602.8c-18.8,74.2-84,127.8-174.6,143.5c-95.9,16.6-182.5-30.7-226-123.4
			C143.6,441.5,253.4,225.2,407.7,79c-11.1,98.7,13.1,191.1,87.2,249.3C602.9,413.3,652,513.4,629.4,602.8z M513.6,304.4
			c-79.3-62.4-89.6-166.1-69.2-262.5c1.3-6.4-1.5-12.9-7.1-16.2c-5.6-3.3-12.7-2.7-17.6,1.5C305,125.2,225.8,238.1,190.5,353.8
			c-30.9,101.3-27.1,201.5,10.8,282c43,91.6,123.2,144.2,215.5,144.2c14.1,0,28.6-1.2,43.2-3.8c101.2-17.5,177.4-81.1,198.8-166
			C673.9,550.6,670.3,427.7,513.6,304.4z"/>
		<path class="st46" d="M629.6,602.9c-18.8,74.3-84.1,128-174.7,143.7c-96,16.6-182.7-30.7-226.3-123.5
			C143.3,441.3,253.4,224.6,408,78.4c-11.1,97.8,12.3,191,87,249.8C603.2,413.2,652.2,513.3,629.6,602.9z M513.5,304.6
			c-78.3-61.6-90.1-164.4-69.3-262.7c1.3-6.3-1.5-12.7-7-15.9c-5.5-3.3-12.5-2.7-17.3,1.5C305.2,125.3,226,238.2,190.8,353.8
			c-30.9,101.3-27.1,201.4,10.8,281.9c43,91.5,123.1,144.1,215.2,144.1c14.1,0,28.6-1.2,43.2-3.8c101.1-17.5,177.2-81,198.6-165.8
			C674,549.1,668.7,426.7,513.5,304.6z"/>
		<path class="st47" d="M629.8,602.9c-18.8,74.4-84.2,128.2-174.9,143.8C358.8,763.4,272,716,228.4,623.1
			c-85.4-181.9,25.1-399,180-545.4c-11.1,97,11.4,190.9,86.8,250.2C603.4,413.1,652.5,513.3,629.8,602.9z M513.3,304.8
			c-77.3-60.8-90.6-162.7-69.4-263c1.3-6.2-1.5-12.5-6.9-15.7c-5.4-3.2-12.3-2.6-17.1,1.5c-114.6,97.9-193.8,210.7-229,326.3
			c-30.9,101.2-27,201.2,10.7,281.7c42.9,91.4,123,143.9,215,143.9c14.1,0,28.5-1.2,43.1-3.8c101-17.5,177-80.9,198.4-165.6
			C674.1,547.7,667.1,425.7,513.3,304.8z"/>
		<path class="st48" d="M630.1,603c-18.8,74.5-84.3,128.3-175.1,144c-96.2,16.6-183.1-30.8-226.8-123.8
			C142.6,441,253.5,223.5,408.6,77.1c-11.2,96.1,10.6,190.9,86.6,250.6C603.6,412.9,652.7,513.2,630.1,603z M513.2,305
			c-76.2-59.9-91.1-161-69.4-263.2c1.3-6.1-1.4-12.3-6.8-15.4c-5.3-3.2-12.1-2.6-16.8,1.4C305.6,125.6,226.4,238.4,191.2,354
			c-30.8,101.1-27,201.1,10.7,281.5c42.9,91.3,122.9,143.8,214.8,143.8c14.1,0,28.5-1.2,43.1-3.8c100.9-17.4,176.9-80.8,198.3-165.4
			C674.3,546.2,665.5,424.8,513.2,305z"/>
		<path class="st49" d="M630.3,603c-18.9,74.6-84.4,128.5-175.3,144.2c-96.3,16.6-183.3-30.8-227-123.9
			c-85.7-182.5,25.5-400.4,181-546.8c-11.2,95.3,9.8,190.8,86.5,251.1C603.8,412.8,653,513.2,630.3,603z M513,305.2
			c-75.2-59.1-91.6-159.3-69.5-263.5c1.3-6-1.4-12.1-6.7-15.2c-5.2-3.1-11.9-2.6-16.5,1.4C305.8,125.8,226.7,238.5,191.4,354
			c-30.8,101.1-27,201,10.7,281.4C245,726.6,324.9,779,416.8,779c14.1,0,28.5-1.2,43-3.8c100.8-17.4,176.7-80.7,198.1-165.3
			C674.4,544.8,663.9,423.8,513,305.2z"/>
		<path class="st50" d="M630.5,603.1C611.6,677.8,546,731.7,455,747.5c-96.4,16.7-183.5-30.9-227.3-124.1
			c-85.9-182.8,25.7-401,181.6-547.5c-11.2,94.4,8.9,190.7,86.3,251.5C604.1,412.7,653.3,513.2,630.5,603.1z M512.9,305.4
			c-74.2-58.3-92.1-157.6-69.6-263.7c1.2-5.9-1.4-11.9-6.5-14.9c-5.1-3.1-11.7-2.5-16.2,1.4c-114.5,97.8-193.6,210.5-228.8,326
			c-30.8,101-27,200.9,10.7,281.2c42.8,91.1,122.6,143.5,214.4,143.5c14.1,0,28.5-1.2,43-3.7c100.7-17.4,176.5-80.7,197.9-165.1
			C674.5,543.3,662.3,422.8,512.9,305.4z"/>
		<path class="st51" d="M630.7,603.2c-18.9,74.8-84.6,128.8-175.7,144.5c-96.5,16.7-183.7-30.9-227.6-124.2
			c-86-183.1,26-401.7,182.1-548.3c-11.2,93.6,8.1,190.6,86.1,252C604.3,412.6,653.5,513.1,630.7,603.2z M512.7,305.6
			c-73.1-57.5-92.6-155.9-69.7-263.9c1.2-5.8-1.4-11.7-6.4-14.7c-5.1-3-11.5-2.5-16,1.4c-114.4,97.8-193.5,210.4-228.7,325.9
			c-30.8,101-27,200.8,10.7,281c42.8,91,122.5,143.4,214.2,143.4c14.1,0,28.4-1.2,43-3.7c100.6-17.4,176.4-80.6,197.7-164.9
			C674.6,541.8,660.7,421.9,512.7,305.6z"/>
		<path class="st52" d="M631,603.2c-18.9,74.9-84.7,128.9-175.9,144.7c-96.6,16.7-183.9-30.9-227.8-124.3
			c-86.1-183.4,26.2-402.4,182.6-549c-11.2,92.7,7.3,190.6,85.9,252.4C604.5,412.4,653.8,513.1,631,603.2z M512.6,305.7
			c-72.1-56.7-93.1-154.2-69.8-264.2c1.2-5.7-1.3-11.5-6.3-14.4c-5-3-11.3-2.4-15.7,1.3c-114.4,97.7-193.5,210.4-228.7,325.7
			c-30.8,100.9-27,200.7,10.7,280.9c42.7,91,122.4,143.2,214,143.2c14,0,28.4-1.2,42.9-3.7c100.5-17.4,176.2-80.5,197.5-164.7
			C674.8,540.4,659.1,420.9,512.6,305.7z"/>
		<path class="st53" d="M631.2,603.3c-18.9,74.9-84.8,129.1-176.1,144.9c-96.8,16.7-184.2-31-228.1-124.5
			C140.8,440,253.5,220.7,410.3,74c-11.3,91.9,6.5,190.5,85.8,252.8C604.7,412.3,654,513.1,631.2,603.3z M512.4,305.9
			c-71-55.9-93.6-152.5-69.9-264.4c1.2-5.6-1.3-11.3-6.2-14.2c-4.9-2.9-11.1-2.4-15.4,1.3C306.6,126.4,227.5,239,192.4,354.3
			c-30.8,100.9-27,200.5,10.7,280.7c42.7,90.9,122.3,143.1,213.8,143.1c14,0,28.4-1.2,42.9-3.7c100.4-17.4,176-80.4,197.3-164.6
			C674.9,538.9,657.5,420,512.4,305.9z"/>
		<path class="st54" d="M631.4,603.3c-19,75-84.9,129.3-176.3,145.1c-96.9,16.7-184.4-31-228.3-124.6
			c-86.4-184,26.6-403.7,183.7-550.4c-11.3,91,5.6,190.4,85.6,253.3C605,412.2,654.3,513,631.4,603.3z M512.3,306.1
			c-70-55-94.1-150.7-70-264.6c1.2-5.5-1.3-11.1-6.1-13.9c-4.8-2.9-10.9-2.3-15.1,1.3c-114.3,97.7-193.4,210.2-228.5,325.5
			c-30.7,100.8-27,200.4,10.7,280.5c42.6,90.8,122.1,143,213.6,143c14,0,28.3-1.2,42.8-3.7c100.3-17.3,175.9-80.3,197.1-164.4
			C675,537.4,655.9,419,512.3,306.1z"/>
		<path class="st55" d="M631.7,603.4c-19,75.1-85,129.4-176.4,145.2c-97,16.8-184.6-31-228.6-124.7
			c-86.6-184.3,26.9-404.4,184.3-551.2c-11.3,90.2,4.8,190.3,85.4,253.7C605.2,412,654.5,513,631.7,603.4z M512.1,306.3
			c-69-54.2-94.6-149-70-264.9c1.1-5.4-1.3-10.9-6-13.7c-4.7-2.8-10.7-2.3-14.9,1.3c-114.3,97.6-193.3,210.2-228.4,325.4
			c-30.7,100.7-26.9,200.3,10.6,280.3c42.6,90.7,122,142.8,213.4,142.8c14,0,28.3-1.2,42.8-3.7c100.2-17.3,175.7-80.2,196.9-164.2
			C675.1,536,654.2,418,512.1,306.3z"/>
		<path class="st56" d="M631.9,603.4c-19,75.2-85.1,129.6-176.6,145.4c-97.1,16.8-184.8-31.1-228.8-124.9
			c-86.7-184.6,27.1-405,184.8-551.9c-11.3,89.3,4,190.3,85.2,254.2C605.4,411.9,654.8,513,631.9,603.4z M512,306.5
			c-67.9-53.4-95.1-147.3-70.1-265.1c1.1-5.3-1.3-10.7-5.9-13.4c-4.6-2.7-10.5-2.3-14.6,1.3C307.1,126.8,228.2,239.3,193,354.5
			c-30.7,100.7-26.9,200.2,10.6,280.2c42.6,90.6,121.9,142.7,213.1,142.7c14,0,28.3-1.2,42.7-3.7c100.1-17.3,175.5-80.2,196.7-164
			C675.3,534.5,652.6,417.1,512,306.5z"/>
		<path class="st57" d="M632.1,603.5c-19,75.3-85.1,129.7-176.8,145.6c-97.2,16.8-185-31.1-229.1-125
			c-86.8-184.9,27.3-405.7,185.3-552.6c-11.3,88.5,3.1,190.2,85.1,254.6C605.6,411.8,655,512.9,632.1,603.5z M511.9,306.7
			C445,254.1,416.3,161,441.6,41.3c1.1-5.2-1.2-10.5-5.8-13.2c-4.5-2.7-10.3-2.2-14.3,1.2c-114.2,97.6-193.2,210-228.3,325.2
			c-30.7,100.6-26.9,200.1,10.6,280c42.5,90.5,121.8,142.5,212.9,142.5c14,0,28.2-1.2,42.7-3.7c100.1-17.3,175.4-80.1,196.5-163.9
			C675.4,533.1,651,416.1,511.9,306.7z"/>
		<path class="st58" d="M632.4,603.6c-19.1,75.4-85.2,129.9-177,145.8C358,766.1,270.2,718.2,226,624.2
			C139,439,253.5,217.8,411.9,70.8c-11.4,87.6,2.3,190.1,84.9,255C605.9,411.7,655.3,512.9,632.4,603.6z M511.7,306.9
			c-65.9-51.8-96.1-143.9-70.3-265.6c1.1-5.1-1.2-10.3-5.7-12.9c-4.4-2.6-10.1-2.2-14,1.2c-114.2,97.6-193.1,210-228.2,325.1
			c-30.7,100.6-26.9,200,10.6,279.8c42.5,90.4,121.7,142.4,212.7,142.4c14,0,28.2-1.2,42.6-3.7c100-17.3,175.2-80,196.4-163.7
			C675.5,531.6,649.4,415.1,511.7,306.9z"/>
		<path class="st59" d="M632.6,603.6c-19.1,75.5-85.3,130.1-177.2,145.9c-97.4,16.8-185.4-31.2-229.6-125.3
			c-87.1-185.5,27.7-407,186.4-554.1c-11.4,86.7,1.5,190,84.7,255.5C606.1,411.5,655.5,512.8,632.6,603.6z M511.6,307
			c-64.8-51-96.6-142.2-70.4-265.8c1.1-5-1.2-10.1-5.5-12.7c-4.4-2.6-9.9-2.1-13.8,1.2c-114.2,97.5-193.1,209.9-228.1,325
			c-30.7,100.5-26.9,199.8,10.6,279.7c42.4,90.4,121.6,142.3,212.5,142.3c13.9,0,28.2-1.2,42.6-3.7c99.9-17.3,175-79.9,196.2-163.5
			C675.6,530.1,647.8,414.2,511.6,307z"/>
		<path class="st60" d="M632.8,603.7c-19.1,75.6-85.4,130.2-177.4,146.1c-97.6,16.9-185.6-31.2-229.9-125.4
			c-87.3-185.8,28-407.7,186.9-554.8c-11.4,85.9,0.6,190,84.5,255.9C606.3,411.4,655.8,512.8,632.8,603.7z M511.4,307.2
			c-63.8-50.1-97.1-140.5-70.5-266c1-4.9-1.2-9.9-5.4-12.4c-4.3-2.5-9.7-2.1-13.5,1.2c-114.1,97.5-193,209.8-228.1,324.8
			c-30.6,100.5-26.9,199.7,10.6,279.5c42.4,90.3,121.4,142.1,212.3,142.1c13.9,0,28.2-1.2,42.6-3.7c99.8-17.2,174.9-79.8,196-163.3
			C675.8,528.7,646.2,413.2,511.4,307.2z"/>
		<path class="st61" d="M633,603.7c-19.1,75.7-85.5,130.4-177.6,146.3c-97.7,16.9-185.8-31.2-230.1-125.5
			C138,438.4,253.5,216.1,412.8,69c-11.4,85-0.2,189.9,84.3,256.4C606.5,411.3,656,512.8,633,603.7z M511.3,307.4
			c-62.7-49.3-97.6-138.8-70.6-266.3c1-4.8-1.1-9.7-5.3-12.2c-4.2-2.5-9.5-2-13.2,1.1c-114.1,97.5-192.9,209.8-228,324.7
			c-30.6,100.4-26.9,199.6,10.6,279.3c42.3,90.2,121.3,142,212.1,142c13.9,0,28.1-1.2,42.5-3.7C559,755.2,634,692.7,655.1,609.3
			C675.9,527.2,644.6,412.3,511.3,307.4z"/>
		<path class="st62" d="M633.3,603.8c-19.2,75.8-85.6,130.5-177.8,146.5c-97.8,16.9-186-31.3-230.4-125.7
			c-87.5-186.4,28.4-409,188-556.3c-11.4,84.2-1,189.8,84.2,256.8C606.7,411.2,656.3,512.7,633.3,603.8z M511.1,307.6
			c-61.7-48.5-98.1-137.1-70.6-266.5c1-4.7-1.1-9.5-5.2-11.9c-4.1-2.4-9.3-2-12.9,1.1C308.3,127.7,229.4,240,194.4,354.9
			c-30.6,100.4-26.8,199.5,10.6,279.2c42.3,90.1,121.2,141.9,211.9,141.9c13.9,0,28.1-1.2,42.5-3.7c99.6-17.2,174.5-79.7,195.6-163
			C676,525.8,643,411.3,511.1,307.6z"/>
		<path class="st63" d="M633.5,603.9c-19.2,75.9-85.7,130.7-178,146.6c-97.9,16.9-186.2-31.3-230.6-125.8
			C137.3,438,253.6,215,413.5,67.7c-11.5,83.3-1.8,189.7,84,257.2C607,411,656.6,512.7,633.5,603.9z M511,307.8
			c-60.7-47.7-98.6-135.4-70.7-266.8c1-4.6-1.1-9.3-5.1-11.6c-4-2.4-9.1-2-12.7,1.1c-114,97.4-192.8,209.6-227.8,324.5
			c-30.6,100.3-26.8,199.4,10.5,279c42.3,90,121.1,141.7,211.7,141.7c13.9,0,28.1-1.2,42.4-3.7c99.5-17.2,174.4-79.6,195.4-162.8
			C676.1,524.3,641.4,410.3,511,307.8z"/>
		<path class="st64" d="M633.7,603.9c-19.2,76-85.8,130.9-178.2,146.8c-98,16.9-186.4-31.3-230.9-125.9
			c-87.8-187,28.8-410.4,189.1-557.7c-11.5,82.5-2.7,189.7,83.8,257.7C607.2,410.9,656.8,512.7,633.7,603.9z M510.8,308
			c-59.6-46.9-99.1-133.7-70.8-267c0.9-4.5-1.1-9.1-5-11.4c-3.9-2.3-8.9-1.9-12.4,1.1c-114,97.4-192.8,209.6-227.8,324.4
			c-30.6,100.2-26.8,199.3,10.5,278.8c42.2,89.9,121,141.6,211.5,141.6c13.9,0,28-1.2,42.4-3.7c99.4-17.2,174.2-79.5,195.2-162.6
			C676.3,522.8,639.8,409.4,510.8,308z"/>
		<path class="st65" d="M634,604c-19.2,76.1-85.9,131-178.3,147c-98.1,16.9-186.7-31.4-231.1-126.1c-88-187.3,29.1-411,189.6-558.4
			c-11.5,81.6-3.5,189.6,83.6,258.1C607.4,410.8,657.1,512.6,634,604z M510.7,308.2c-58.6-46.1-99.5-132-70.9-267.2
			c0.9-4.4-1-8.9-4.9-11.1c-3.8-2.3-8.7-1.9-12.1,1c-114,97.4-192.7,209.5-227.7,324.3c-30.5,100.2-26.8,199.1,10.5,278.6
			c42.2,89.8,120.8,141.5,211.3,141.5c13.9,0,28-1.2,42.3-3.7c99.3-17.2,174-79.4,195-162.5C676.4,521.4,638.2,408.4,510.7,308.2z"
			/>
		<path class="st66" d="M634.2,604c-19.3,76.2-86,131.2-178.5,147.2c-98.2,17-186.9-31.4-231.4-126.2
			c-88.1-187.6,29.3-411.7,190.2-559.2c-11.5,80.8-4.3,189.5,83.5,258.5C607.6,410.7,657.3,512.6,634.2,604z M510.5,308.4
			c-57.5-45.2-100-130.3-71-267.5c0.9-4.3-1-8.6-4.8-10.9c-3.7-2.2-8.5-1.8-11.8,1C309,128.3,230.3,240.4,195.3,355.2
			c-30.5,100.1-26.8,199,10.5,278.5C248,723.4,326.5,775,416.9,775c13.8,0,28-1.2,42.3-3.7C558.4,754.2,633,692,654,609
			C676.5,519.9,636.6,407.4,510.5,308.4z"/>
		<path class="st67" d="M634.4,604.1c-19.3,76.3-86.1,131.3-178.7,147.3c-98.3,17-187.1-31.4-231.6-126.3
			c-88.2-187.9,29.5-412.3,190.7-559.9c-11.5,79.9-5.2,189.4,83.3,259C607.9,410.5,657.6,512.5,634.4,604.1z M510.4,308.5
			C453.9,264.1,409.8,180,439.3,40.8c0.9-4.2-1-8.4-4.7-10.6c-3.7-2.2-8.3-1.8-11.6,1c-113.9,97.3-192.6,209.4-227.6,324.1
			C165,455.3,168.7,554.2,206,633.6c42.1,89.7,120.6,141.2,210.8,141.2c13.8,0,27.9-1.2,42.2-3.7c99.1-17.1,173.7-79.2,194.6-162.1
			C676.6,518.4,635,406.5,510.4,308.5z"/>
		<path class="st68" d="M634.7,604.1c-19.3,76.3-86.2,131.5-178.9,147.5c-98.5,17-187.3-31.5-231.9-126.5
			c-88.4-188.2,29.7-413,191.2-560.6c-11.5,79.1-6,189.4,83.1,259.4C608.1,410.4,657.8,512.5,634.7,604.1z M510.2,308.7
			c-55.5-43.6-101-126.8-71.2-267.9c0.9-4.1-1-8.2-4.6-10.4c-3.6-2.1-8.1-1.7-11.3,1c-113.9,97.3-192.5,209.3-227.5,324
			c-30.5,100-26.8,198.8,10.5,278.1c42.1,89.6,120.5,141,210.6,141c13.8,0,27.9-1.2,42.2-3.7c99-17.1,173.5-79.2,194.5-161.9
			C676.8,517,633.3,405.5,510.2,308.7z"/>
		<path class="st69" d="M634.9,604.2c-19.3,76.4-86.3,131.7-179.1,147.7c-98.6,17-187.5-31.5-232.1-126.6
			C135.1,436.8,253.6,211.6,415.4,64c-11.6,78.2-6.8,189.3,82.9,259.9C608.3,410.3,658.1,512.5,634.9,604.2z M510.1,308.9
			c-54.4-42.8-101.5-125.1-71.2-268.2c0.8-4-0.9-8-4.4-10.1c-3.5-2.1-7.9-1.7-11,0.9C309.6,128.8,230.9,240.8,196,355.4
			c-30.5,100-26.8,198.7,10.5,278c42,89.5,120.4,140.9,210.4,140.9c13.8,0,27.9-1.2,42.1-3.7c98.9-17.1,173.4-79.1,194.3-161.7
			C676.9,515.5,631.7,404.6,510.1,308.9z"/>
		<path class="st70" d="M635.1,604.3c-19.3,76.5-86.4,131.8-179.3,147.9c-98.7,17-187.7-31.5-232.4-126.7
			c-88.7-188.8,30.2-414.3,192.3-562.1c-11.6,77.4-7.7,189.2,82.8,260.3C608.5,410.2,658.3,512.4,635.1,604.3z M509.9,309.1
			c-53.4-42-102-123.4-71.3-268.4c0.8-3.9-0.9-7.8-4.3-9.9c-3.4-2-7.7-1.7-10.7,0.9c-113.8,97.2-192.4,209.2-227.3,323.7
			c-30.5,99.9-26.7,198.6,10.5,277.8c42,89.4,120.2,140.8,210.2,140.8c13.8,0,27.9-1.2,42.1-3.7c98.8-17.1,173.2-79,194.1-161.6
			C677,514.1,630.1,403.6,509.9,309.1z"/>
		<path class="st71" d="M635.3,604.3c-19.4,76.6-86.5,132-179.5,148c-98.8,17.1-187.9-31.5-232.7-126.9
			c-88.8-189.1,30.4-415,192.8-562.8c-11.6,76.5-8.5,189.1,82.6,260.7C608.8,410,658.6,512.4,635.3,604.3z M509.8,309.3
			c-52.4-41.2-102.5-121.7-71.4-268.6c0.8-3.8-0.9-7.6-4.2-9.6c-3.3-2-7.5-1.6-10.5,0.9C310,129.1,231.4,241,196.4,355.5
			C166,455.4,169.7,554,206.9,633.2c41.9,89.3,120.1,140.6,210,140.6c13.8,0,27.8-1.2,42.1-3.7c98.7-17.1,173-78.9,193.9-161.4
			C677.1,512.6,628.5,402.6,509.8,309.3z"/>
		<path class="st72" d="M635.6,604.4c-19.4,76.7-86.6,132.1-179.7,148.2C357,769.7,267.8,721,223,625.6
			c-88.9-189.4,30.6-415.7,193.4-563.5c-11.6,75.7-9.3,189.1,82.4,261.2C609,409.9,658.8,512.4,635.6,604.4z M509.7,309.5
			c-51.3-40.4-103-120-71.5-268.9c0.8-3.7-0.9-7.4-4.1-9.4c-3.2-1.9-7.3-1.6-10.2,0.9c-113.7,97.1-192.3,209-227.2,323.5
			c-30.4,99.8-26.7,198.3,10.4,277.5c41.9,89.2,120,140.5,209.8,140.5c13.8,0,27.8-1.2,42-3.7c98.7-17,172.9-78.8,193.7-161.2
			C677.3,511.1,626.9,401.7,509.7,309.5z"/>
		<path class="st73" d="M635.8,604.4c-19.4,76.8-86.7,132.3-179.9,148.4c-99,17.1-188.3-31.6-233.2-127.1
			C133.7,436,253.6,209.4,416.7,61.5c-11.6,74.8-10.2,189,82.2,261.6C609.2,409.8,659.1,512.3,635.8,604.4z M509.5,309.7
			C459.2,270.1,406,191.3,437.9,40.5c0.8-3.6-0.9-7.2-4-9.1c-3.1-1.9-7.1-1.5-9.9,0.9c-113.7,97.1-192.2,208.9-227.1,323.4
			c-30.4,99.7-26.7,198.2,10.4,277.3c41.9,89.1,119.9,140.4,209.6,140.4c13.7,0,27.8-1.2,42-3.7c98.6-17,172.7-78.7,193.5-161
			C677.4,509.7,625.3,400.7,509.5,309.7z"/>
	</g>
	<g>
		<path class="st74" d="M417,769c-88,0-164.7-50.3-205.8-137.9C174.5,553,170.9,455.7,201,356.9c34.7-113.7,112.8-224.8,225.8-321.4
			c1.4-1.2,3.4-1.4,5-0.4c1.6,0.9,2.4,2.8,2,4.6c-32.4,152.9,21.9,233.1,73.1,273.4c114.4,90,165.9,197.3,141.4,294.6
			c-20.7,81.9-91.8,140.9-190.1,157.9C444.2,767.9,430.4,769,417,769z M423,50.2c-168.9,148.7-295.7,382.2-204,577.4
			c45.7,97.3,136.8,147,237.8,129.5c94.9-16.4,163.4-73.1,183.3-151.6c23.7-93.8-26.7-198-138.4-285.8
			C405.8,244.4,409.6,123.2,423,50.2z"/>
	</g>
</g>
</svg>
